<svg xmlns="http://www.w3.org/2000/svg" xmlns:xlink="http://www.w3.org/1999/xlink" width="100" zoomAndPan="magnify" viewBox="0 0 75 74.999997" height="100" preserveAspectRatio="xMidYMid meet" version="1.2"><defs><clipPath id="b65a0d114c"><path d="M 5.492188 9 L 69.660156 9 L 69.660156 68.519531 L 5.492188 68.519531 Z M 5.492188 9 "/></clipPath><clipPath id="006aba139a"><path d="M 37.5 9 L 46.6875 18.140625 L 60.132812 17.71875 L 59.675781 30.21875 L 69.507812 38.761719 L 59.675781 47.300781 L 60.132812 59.800781 L 46.6875 59.378906 L 37.5 68.519531 L 28.3125 59.378906 L 14.867188 59.800781 L 15.324219 47.300781 L 5.492188 38.761719 L 15.324219 30.21875 L 14.867188 17.71875 L 28.3125 18.140625 Z M 37.5 9 "/></clipPath><clipPath id="e66232d31d"><path d="M 5.496094 9 L 69.242188 9 L 69.242188 68.25 L 5.496094 68.25 Z M 5.496094 9 "/></clipPath><clipPath id="64de46e268"><path d="M 37.359375 9 L 46.503906 18.097656 L 59.890625 17.679688 L 59.4375 30.125 L 69.222656 38.625 L 59.4375 47.128906 L 59.890625 59.574219 L 46.503906 59.152344 L 37.359375 68.25 L 28.214844 59.152344 L 14.828125 59.574219 L 15.28125 47.128906 L 5.496094 38.625 L 15.28125 30.125 L 14.828125 17.679688 L 28.214844 18.097656 Z M 37.359375 9 "/></clipPath><clipPath id="d78aca9611"><path d="M 13.675781 16.609375 L 61.4375 16.609375 L 61.4375 60.910156 L 13.675781 60.910156 Z M 13.675781 16.609375 "/></clipPath><clipPath id="59a782bfd9"><path d="M 37.5 16.609375 L 44.339844 23.410156 L 54.347656 23.097656 L 54.007812 32.402344 L 61.324219 38.761719 L 54.007812 45.117188 L 54.347656 54.421875 L 44.339844 54.109375 L 37.5 60.910156 L 30.660156 54.109375 L 20.652344 54.421875 L 20.992188 45.117188 L 13.675781 38.761719 L 20.992188 32.402344 L 20.652344 23.097656 L 30.660156 23.410156 Z M 37.5 16.609375 "/></clipPath><clipPath id="46cc5f22a4"><path d="M 13.679688 16.609375 L 61.421875 16.609375 L 61.421875 60.859375 L 13.679688 60.859375 Z M 13.679688 16.609375 "/></clipPath><clipPath id="fa11803309"><path d="M 37.472656 16.609375 L 44.304688 23.402344 L 54.300781 23.089844 L 53.964844 32.382812 L 61.269531 38.734375 L 53.964844 45.082031 L 54.300781 54.378906 L 44.304688 54.0625 L 37.472656 60.859375 L 30.644531 54.0625 L 20.648438 54.378906 L 20.984375 45.082031 L 13.679688 38.734375 L 20.984375 32.382812 L 20.648438 23.089844 L 30.644531 23.402344 Z M 37.472656 16.609375 "/></clipPath><clipPath id="94be7b758a"><path d="M 37.5 24.265625 L 40.101562 24.265625 L 40.101562 26.742188 L 37.5 26.742188 Z M 37.5 24.265625 "/></clipPath><clipPath id="bb09a740e9"><path d="M 38.796875 24.265625 L 39.105469 25.210938 L 40.097656 25.210938 L 39.292969 25.796875 L 39.601562 26.742188 L 38.796875 26.15625 L 37.996094 26.742188 L 38.300781 25.796875 L 37.5 25.210938 L 38.492188 25.210938 Z M 38.796875 24.265625 "/></clipPath><clipPath id="7a5757a39c"><path d="M 35 23 L 41 23 L 41 29 L 35 29 Z M 35 23 "/></clipPath><clipPath id="606d4b7781"><path d="M 35.953125 22.519531 L 41.757812 24.039062 L 40.238281 29.84375 L 34.433594 28.320312 Z M 35.953125 22.519531 "/></clipPath><clipPath id="bdd588b16f"><path d="M 35.953125 22.519531 L 41.757812 24.039062 L 40.238281 29.84375 L 34.433594 28.320312 Z M 35.953125 22.519531 "/></clipPath><clipPath id="5ce2347816"><path d="M 38 31.207031 L 49 31.207031 L 49 45 L 38 45 Z M 38 31.207031 "/></clipPath><clipPath id="1bc2bd704d"><path d="M 25.414062 31.207031 L 50.914062 31.207031 L 50.914062 50.707031 L 25.414062 50.707031 Z M 25.414062 31.207031 "/></clipPath><clipPath id="34015bc681"><path d="M 27 31.207031 L 38 31.207031 L 38 45 L 27 45 Z M 27 31.207031 "/></clipPath></defs><g id="4c72ba8d94"><g clip-rule="nonzero" clip-path="url(#b65a0d114c)"><g clip-rule="nonzero" clip-path="url(#006aba139a)"><path style=" stroke:none;fill-rule:nonzero;fill:#492741;fill-opacity:1;" d="M 5.492188 9 L 69.429688 9 L 69.429688 68.519531 L 5.492188 68.519531 Z M 5.492188 9 "/></g></g><g clip-rule="nonzero" clip-path="url(#e66232d31d)"><g clip-rule="nonzero" clip-path="url(#64de46e268)"><path style="fill:none;stroke-width:2;stroke-linecap:butt;stroke-linejoin:miter;stroke:#eeb975;stroke-opacity:1;stroke-miterlimit:4;" d="M 42.668663 -0.0020353 L 54.914428 12.180957 L 72.841055 11.62124 L 72.234259 28.287197 L 85.337907 39.669847 L 72.234259 51.057728 L 72.841055 67.723684 L 54.914428 67.158737 L 42.668663 79.341729 L 30.422899 67.158737 L 12.496272 67.723684 L 13.103068 51.057728 L -0.000580035 39.669847 L 13.103068 28.287197 L 12.496272 11.62124 L 30.422899 12.180957 Z M 42.668663 -0.0020353 " transform="matrix(0.746751,0,0,0.746751,5.496527,9.00152)"/></g></g><g clip-rule="nonzero" clip-path="url(#d78aca9611)"><g clip-rule="nonzero" clip-path="url(#59a782bfd9)"><path style=" stroke:none;fill-rule:nonzero;fill:#fcfdff;fill-opacity:1;" d="M 13.675781 16.609375 L 61.265625 16.609375 L 61.265625 60.910156 L 13.675781 60.910156 Z M 13.675781 16.609375 "/></g></g><g clip-rule="nonzero" clip-path="url(#46cc5f22a4)"><g clip-rule="nonzero" clip-path="url(#fa11803309)"><path style="fill:none;stroke-width:2;stroke-linecap:butt;stroke-linejoin:miter;stroke:#eeb975;stroke-opacity:1;stroke-miterlimit:4;" d="M 31.759305 0.00112823 L 40.878331 9.068015 L 54.220576 8.650907 L 53.772184 21.054659 L 63.522086 29.532381 L 53.772184 38.004889 L 54.220576 50.413854 L 40.878331 49.991533 L 31.759305 59.063633 L 22.645493 49.991533 L 9.303248 50.413854 L 9.751639 38.004889 L 0.00173794 29.532381 L 9.751639 21.054659 L 9.303248 8.650907 L 22.645493 9.068015 Z M 31.759305 0.00112823 " transform="matrix(0.749206,0,0,0.749206,13.678385,16.60853)"/></g></g><g clip-rule="nonzero" clip-path="url(#94be7b758a)"><g clip-rule="nonzero" clip-path="url(#bb09a740e9)"><path style=" stroke:none;fill-rule:nonzero;fill:#eeb975;fill-opacity:1;" d="M 37.5 24.265625 L 40.101562 24.265625 L 40.101562 26.742188 L 37.5 26.742188 Z M 37.5 24.265625 "/></g></g><g clip-rule="nonzero" clip-path="url(#7a5757a39c)"><g clip-rule="nonzero" clip-path="url(#606d4b7781)"><g clip-rule="nonzero" clip-path="url(#bdd588b16f)"><path style=" stroke:none;fill-rule:nonzero;fill:#eeb975;fill-opacity:1;" d="M 37.957031 23.042969 C 37.605469 23.089844 37.277344 23.199219 36.964844 23.371094 C 36.65625 23.542969 36.386719 23.761719 36.15625 24.035156 C 35.929688 24.304688 35.757812 24.609375 35.640625 24.941406 C 35.523438 25.277344 35.472656 25.621094 35.484375 25.976562 C 35.496094 26.359375 35.582031 26.722656 35.738281 27.066406 C 35.894531 27.414062 36.113281 27.71875 36.390625 27.976562 C 36.667969 28.238281 36.988281 28.433594 37.34375 28.566406 C 37.699219 28.699219 38.066406 28.761719 38.449219 28.75 C 38.988281 28.730469 39.484375 28.570312 39.933594 28.269531 C 40.386719 27.972656 40.722656 27.578125 40.953125 27.085938 C 40.464844 27.640625 39.851562 27.929688 39.113281 27.953125 C 38.773438 27.964844 38.441406 27.910156 38.121094 27.792969 C 37.800781 27.671875 37.515625 27.496094 37.269531 27.261719 C 37.019531 27.027344 36.824219 26.757812 36.683594 26.445312 C 36.539062 26.136719 36.464844 25.808594 36.453125 25.46875 C 36.4375 24.949219 36.5625 24.46875 36.839844 24.027344 C 37.113281 23.585938 37.484375 23.257812 37.957031 23.042969 Z M 37.957031 23.042969 "/></g></g></g><g clip-rule="nonzero" clip-path="url(#5ce2347816)"><path style=" stroke:none;fill-rule:nonzero;fill:#eeb975;fill-opacity:1;" d="M 48.851562 39.128906 L 46.332031 31.207031 C 46.332031 31.207031 45.355469 32.058594 42.703125 32.460938 C 40.046875 32.863281 38.585938 34.386719 38.585938 34.386719 L 38.585938 44.144531 C 40.664062 41.5 48.851562 39.128906 48.851562 39.128906 "/></g><g clip-rule="nonzero" clip-path="url(#1bc2bd704d)"><path style=" stroke:none;fill-rule:nonzero;fill:#eeb975;fill-opacity:1;" d="M 49.945312 40.832031 L 44.019531 43.738281 C 44.339844 43.847656 44.660156 43.988281 44.910156 44.359375 C 45.398438 45.066406 44.757812 45.460938 44.691406 45.441406 C 44.667969 45.433594 43.78125 44.980469 42.664062 44.402344 L 42.257812 44.605469 C 43.863281 45.183594 45.070312 47.15625 45.648438 47.636719 C 46.382812 48.242188 47.4375 48.054688 48.136719 49.078125 C 48.839844 50.097656 47.914062 50.683594 47.820312 50.652344 C 47.738281 50.625 40.476562 46.949219 38.589844 45.921875 L 37.707031 45.921875 C 35.820312 46.949219 28.5625 50.625 28.480469 50.652344 C 28.382812 50.683594 27.457031 50.097656 28.160156 49.078125 C 28.863281 48.054688 29.914062 48.242188 30.648438 47.636719 C 31.226562 47.15625 32.433594 45.183594 34.039062 44.605469 L 33.632812 44.402344 C 32.515625 44.980469 31.632812 45.433594 31.609375 45.441406 C 31.542969 45.460938 30.902344 45.066406 31.386719 44.359375 C 31.640625 43.988281 31.960938 43.847656 32.277344 43.738281 L 26.355469 40.832031 L 25.421875 40.375 L 25.742188 39.34375 L 28.261719 31.234375 L 29.238281 31.535156 L 26.679688 39.789062 L 38.148438 45.21875 L 49.621094 39.789062 L 47.058594 31.535156 L 48.039062 31.234375 L 50.554688 39.34375 L 50.875 40.375 L 49.945312 40.832031 "/></g><g clip-rule="nonzero" clip-path="url(#34015bc681)"><path style=" stroke:none;fill-rule:nonzero;fill:#eeb975;fill-opacity:1;" d="M 37.710938 44.144531 L 37.710938 34.386719 C 37.710938 34.386719 36.253906 32.863281 33.597656 32.460938 C 30.941406 32.058594 29.96875 31.207031 29.96875 31.207031 L 27.445312 39.128906 C 27.445312 39.128906 35.632812 41.5 37.710938 44.144531 "/></g></g></svg>